<mxfile host="app.diagrams.net" modified="2021-01-20T11:50:19.721Z" agent="5.0 (Windows NT 10.0; WOW64) AppleWebKit/537.36 (KHTML, like Gecko) Chrome/76.0.3809.132 Safari/537.36" etag="DjiPbVaM4k5NfjUBbAL4" version="14.2.5" type="github">
  <diagram id="-bvuyzWrCsl-kuN11l42" name="第 1 页">
    <mxGraphModel dx="1286" dy="762" grid="1" gridSize="10" guides="1" tooltips="1" connect="1" arrows="1" fold="1" page="1" pageScale="1" pageWidth="827" pageHeight="1169" math="0" shadow="0">
      <root>
        <mxCell id="0" />
        <mxCell id="1" parent="0" />
      </root>
    </mxGraphModel>
  </diagram>
</mxfile>
